<?xml version="1.0" encoding="iso-8859-1"?>
<!-- Generator: Adobe Illustrator 19.0.0, SVG Export Plug-In . SVG Version: 6.00 Build 0)  -->
<svg version="1.1" id="Capa_1" xmlns="http://www.w3.org/2000/svg" xmlns:xlink="http://www.w3.org/1999/xlink" x="0px" y="0px"
	 viewBox="0 0 385.52 385.52" style="enable-background:new 0 0 385.52 385.52;" xml:space="preserve">
<g>
	<g>
		<path d="M356.76,5.52L356.76,5.52c0-3.049-2.471-5.52-5.52-5.52h-35.76c-3.06,0-5.54,2.48-5.54,5.54c0,3.06,2.48,5.54,5.54,5.54
			h23.64l-29.88,35c-1.99,2.31-1.731,5.795,0.579,7.785c0.955,0.822,2.162,1.293,3.421,1.335h37.68c3.06,0,5.54-2.48,5.54-5.54
			c0-3.06-2.48-5.54-5.54-5.54h-25.48l29.64-34.68C356.143,8.411,356.748,6.999,356.76,5.52z"/>
	</g>
</g>
<g>
	<g>
		<path d="M336.358,341.102c-0.917-1.37-2.397-2.258-4.037-2.422l0-0.04h-0.72c-100.339,0.061-181.73-81.23-181.791-181.569
			C149.774,98.936,177.561,44.296,224.56,10.08c2.518-1.718,3.167-5.152,1.449-7.671c-1.03-1.51-2.741-2.412-4.569-2.409
			C115.013,0.044,28.76,86.333,28.76,192.76c0,106.458,86.302,192.76,192.76,192.76c40.716,0.072,80.4-12.801,113.32-36.76
			C337.374,347.064,338.053,343.636,336.358,341.102z M277.84,365.6v-0.04c-18.163,5.901-37.143,8.898-56.24,8.88
			c-100.339,0-181.68-81.341-181.68-181.68c0.007-93.816,71.43-172.205,164.84-180.92c-80.048,70.183-88.045,191.97-17.861,272.018
			c32.63,37.216,78.326,60.455,127.621,64.902C302.959,355.722,290.656,361.371,277.84,365.6z"/>
	</g>
</g>
<g>
	<g>
		<path d="M274.76,93.8h-25.68l29.64-34.68c2.166-2.146,2.182-5.641,0.036-7.806c-1.065-1.075-2.524-1.665-4.036-1.634h-35.6
			c-3.06,0-5.54,2.48-5.54,5.54c0,3.06,2.48,5.54,5.54,5.54h23.64l-30,35c-1.956,2.338-1.647,5.819,0.691,7.776
			c0.01,0.008,0.019,0.016,0.029,0.024c1.002,0.859,2.28,1.328,3.6,1.32h37.68c3.06,0,5.54-2.48,5.54-5.54
			C280.3,96.28,277.82,93.8,274.76,93.8z"/>
	</g>
</g>
<g>
</g>
<g>
</g>
<g>
</g>
<g>
</g>
<g>
</g>
<g>
</g>
<g>
</g>
<g>
</g>
<g>
</g>
<g>
</g>
<g>
</g>
<g>
</g>
<g>
</g>
<g>
</g>
<g>
</g>
</svg>
